<svg id="图层_1" data-name="图层 1" xmlns="http://www.w3.org/2000/svg" viewBox="0 0 3017.01 2017.01"><defs><style>.cls-1{fill:#fce4e4;}.cls-2{fill:#91d3eb;}.cls-3,.cls-42,.cls-9{fill:none;}.cls-3,.cls-8{stroke:#040000;}.cls-3,.cls-8,.cls-9{stroke-linecap:round;stroke-linejoin:round;stroke-width:16px;}.cls-4{fill:#f8cf7d;}.cls-5{fill:#efd76e;}.cls-6{fill:#d3b923;}.cls-7{fill:#f3bb57;}.cls-32,.cls-8{fill:#040000;}.cls-9{stroke:#fff;}.cls-10{fill:#fbeebb;}.cls-11{fill:#c3e5ed;}.cls-12{fill:#f4f5c1;}.cls-13{fill:#bfd4ee;}.cls-14{fill:#f4adad;}.cls-15{fill:#c1e3e3;}.cls-16{fill:#f0c4be;}.cls-17{fill:#afdac0;}.cls-18{fill:#bfe3ef;}.cls-19{fill:#9bd0a4;}.cls-20{fill:#fbe1b2;}.cls-21{fill:#ebc8c8;}.cls-22{fill:#97c7c8;}.cls-23{fill:#f0cdbf;}.cls-24{fill:#c2e0bc;}.cls-25{fill:#f6e062;}.cls-26{fill:#ea8c8c;}.cls-27{fill:#bcd5ea;}.cls-28{fill:#eadb9e;}.cls-29{fill:#a0d5cf;}.cls-30{fill:#c3ce9d;}.cls-31{fill:#f2c1c1;}.cls-33{fill:#b8dbac;}.cls-34{fill:#80c485;}.cls-35{fill:#aed6a0;}.cls-36{fill:#87c683;}.cls-37{fill:#7fcbce;}.cls-38{fill:#f7c1c1;}.cls-39{fill:#fdf0d2;}.cls-40{fill:#57bdd5;}.cls-41{fill:#f6bcbc;}</style></defs><title>5ac0417bd28a5</title><path class="cls-1" d="M2699.09,1508.78c0-152.23-123.41-275.64-275.64-275.64a274.46,274.46,0,0,0-141.76,39.21,187,187,0,0,0-9-99.31,188,188,0,0,0-47.71,21.77,187.69,187.69,0,0,0-19.11-37.48A186.9,186.9,0,0,0,2137.52,1417s-75.44,40.5-77.34,94.93h154.05v0h484.82C2699.06,1510.88,2699.09,1509.83,2699.09,1508.78Z" transform="translate(8.5 8.5)"/><path class="cls-2" d="M1331.11,1328.32l-3.91-119.89-78.53,118.87H514.9c3.22,115.9,184.51,209.34,407.67,209.34,172.89,0,320.64-56.08,379.94-135.24l117.22-71.2Z" transform="translate(8.5 8.5)"/><path class="cls-3" d="M752.55,405.63A152.58,152.58,0,0,0,733.48,410" transform="translate(8.5 8.5)"/><path class="cls-4" d="M944.38,540.63c0-.29,0-.58,0-.87a136,136,0,0,0-272.09,0c0,.29,0,.58,0,.87h0c0,1.07,0,2.13,0,3.19,1.71,138.53,114.52,250.3,253.45,250.3s251.74-111.77,253.45-250.3c0-1.06,0-2.12,0-3.19Z" transform="translate(8.5 8.5)"/><path class="cls-5" d="M832.29,584.68c0,.41,0,.81,0,1.22,0,56.71,48.55,102.69,108.44,102.69s108.44-46,108.44-102.69c0-.41,0-.81,0-1.22Z" transform="translate(8.5 8.5)"/><path class="cls-6" d="M1049.15,584.68H832.29c0,.41,0,.81,0,1.22,0,2.81.12,5.58.35,8.33h195.45c0,.41,0,.81,0,1.22,0,36.9-20.56,69.24-51.42,87.35,42.22-14,72.48-52.12,72.48-96.9C1049.16,585.49,1049.15,585.09,1049.15,584.68Z" transform="translate(8.5 8.5)"/><path class="cls-3" d="M824.09,576.73c0,.47,0,.94,0,1.41a118.4,118.4,0,0,0,236.8,0c0-.47,0-.94,0-1.41Z" transform="translate(8.5 8.5)"/><path class="cls-7" d="M944.38,540.63c0-.29-19-.58-19-.87,0-75.13-41.91-136-117-136A135.86,135.86,0,0,0,699,458.79a135.45,135.45,0,0,1,82.33-27.74c75.13,0,120,60.91,120,136.05,0,.29,16,.58,16,.86h204.9c0,1.07,0,2.13,0,3.2-.76,61.28-25.27,117.31-62.15,160.76,52.65-45.82,95.22-113,96.15-188.1,0-1.06,0-2.12,0-3.19Z" transform="translate(8.5 8.5)"/><path class="cls-3" d="M816,781.79a311.82,311.82,0,0,0,88.92,12.46c138.93,0,251.74-111.77,253.45-250.29,0-1.07,0-2.13,0-3.19H923.54c0-.29,0-.58,0-.87,0-75.14-61-131.75-136-136" transform="translate(8.5 8.5)"/><path class="cls-3" d="M746.3,749.09a236.39,236.39,0,0,0,26.32,15.51" transform="translate(8.5 8.5)"/><path class="cls-3" d="M702.51,423.59a116.9,116.9,0,0,0-17.63,13c-20,17.91-33.1,42.83-34.45,74.1h0L577.15,558l77.65,39.79h0c5.33,41.57,20.59,77.27,43.35,106.38A207.36,207.36,0,0,0,722,729.87" transform="translate(8.5 8.5)"/><circle class="cls-8" cx="767.97" cy="516.31" r="16.67"/><path class="cls-9" d="M744.51,451.81c7-4,6.67-4.78,14.48-7.34" transform="translate(8.5 8.5)"/><path class="cls-9" d="M693.84,507.8c8.37-18.78,11.93-27.07,28.12-39.35" transform="translate(8.5 8.5)"/><path class="cls-10" d="M1124.33,255.09a10,10,0,0,1-10,10h0a10,10,0,0,1-10-10v-16a10,10,0,0,1,10-10h0a10,10,0,0,1,10,10Z" transform="translate(8.5 8.5)"/><path class="cls-10" d="M1124.33,345.05a10,10,0,0,1-10,10h0a10,10,0,0,1-10-10v-16a10,10,0,0,1,10-10h0a10,10,0,0,1,10,10Z" transform="translate(8.5 8.5)"/><path class="cls-10" d="M1151.74,302.07a10,10,0,0,1-10-10h0a10,10,0,0,1,10-10h16a10,10,0,0,1,10,10h0a10,10,0,0,1-10,10Z" transform="translate(8.5 8.5)"/><path class="cls-10" d="M1061.79,302.07a10,10,0,0,1-10-10h0a10,10,0,0,1,10-10h16a10,10,0,0,1,10,10h0a10,10,0,0,1-10,10Z" transform="translate(8.5 8.5)"/><path class="cls-10" d="M1095.38,259.16a10,10,0,0,1,0,14.14h0a10,10,0,0,1-14.14,0L1069.92,262a10,10,0,0,1,0-14.14h0a10,10,0,0,1,14.15,0Z" transform="translate(8.5 8.5)"/><path class="cls-10" d="M1159,322.77a10,10,0,0,1,0,14.14h0a10,10,0,0,1-14.15,0l-11.31-11.32a10,10,0,0,1,0-14.14h0a10,10,0,0,1,14.14,0Z" transform="translate(8.5 8.5)"/><path class="cls-10" d="M1148,273a10,10,0,0,1-14.14,0h0a10,10,0,0,1,0-14.15l11.31-11.31a10,10,0,0,1,14.14,0h0a10,10,0,0,1,0,14.14Z" transform="translate(8.5 8.5)"/><path class="cls-10" d="M1084.37,336.6a10,10,0,0,1-14.14,0h0a10,10,0,0,1,0-14.14l11.31-11.31a10,10,0,0,1,14.15,0h0a10,10,0,0,1,0,14.14Z" transform="translate(8.5 8.5)"/><path class="cls-11" d="M708,1188a5.52,5.52,0,0,1-5.51,5.52h0A5.52,5.52,0,0,1,697,1188v-8.83a5.52,5.52,0,0,1,5.52-5.51h0a5.51,5.51,0,0,1,5.51,5.51Z" transform="translate(8.5 8.5)"/><path class="cls-11" d="M708,1237.65a5.52,5.52,0,0,1-5.51,5.52h0a5.52,5.52,0,0,1-5.52-5.52v-8.82a5.52,5.52,0,0,1,5.52-5.52h0a5.52,5.52,0,0,1,5.51,5.52Z" transform="translate(8.5 8.5)"/><path class="cls-11" d="M723.14,1213.94a5.51,5.51,0,0,1-5.51-5.51h0a5.52,5.52,0,0,1,5.51-5.52H732a5.52,5.52,0,0,1,5.52,5.52h0a5.52,5.52,0,0,1-5.52,5.51Z" transform="translate(8.5 8.5)"/><path class="cls-11" d="M673.52,1213.94a5.52,5.52,0,0,1-5.52-5.51h0a5.52,5.52,0,0,1,5.52-5.52h8.83a5.52,5.52,0,0,1,5.51,5.52h0a5.51,5.51,0,0,1-5.51,5.51Z" transform="translate(8.5 8.5)"/><path class="cls-11" d="M692.05,1190.27a5.5,5.5,0,0,1,0,7.8h0a5.5,5.5,0,0,1-7.8,0l-6.24-6.24a5.5,5.5,0,0,1,0-7.8h0a5.52,5.52,0,0,1,7.8,0Z" transform="translate(8.5 8.5)"/><path class="cls-11" d="M727.14,1225.36a5.5,5.5,0,0,1,0,7.8h0a5.5,5.5,0,0,1-7.8,0l-6.24-6.24a5.5,5.5,0,0,1,0-7.8h0a5.52,5.52,0,0,1,7.8,0Z" transform="translate(8.5 8.5)"/><path class="cls-11" d="M721.07,1197.9a5.5,5.5,0,0,1-7.8,0h0a5.5,5.5,0,0,1,0-7.8l6.24-6.24a5.52,5.52,0,0,1,7.8,0h0a5.52,5.52,0,0,1,0,7.8Z" transform="translate(8.5 8.5)"/><path class="cls-11" d="M686,1233a5.5,5.5,0,0,1-7.8,0h0a5.5,5.5,0,0,1,0-7.8l6.24-6.24a5.52,5.52,0,0,1,7.8,0h0a5.5,5.5,0,0,1,0,7.8Z" transform="translate(8.5 8.5)"/><path class="cls-12" d="M1341.27,451.62a6.43,6.43,0,0,1-6.43,6.43h0a6.42,6.42,0,0,1-6.42-6.43V392.48a6.42,6.42,0,0,1,6.42-6.43h0a6.42,6.42,0,0,1,6.43,6.43Z" transform="translate(8.5 8.5)"/><path class="cls-12" d="M1364.42,415a6.41,6.41,0,0,1,6.42,6.42h0a6.42,6.42,0,0,1-6.42,6.43h-59.15a6.43,6.43,0,0,1-6.43-6.43h0a6.42,6.42,0,0,1,6.43-6.42Z" transform="translate(8.5 8.5)"/><path class="cls-13" d="M2633.82,655.69a6.42,6.42,0,0,1-6.43,6.42h0a6.42,6.42,0,0,1-6.43-6.42V596.54a6.43,6.43,0,0,1,6.43-6.43h0a6.43,6.43,0,0,1,6.43,6.43Z" transform="translate(8.5 8.5)"/><path class="cls-13" d="M2657,619a6.43,6.43,0,0,1,6.43,6.43h0a6.43,6.43,0,0,1-6.43,6.43h-59.14a6.43,6.43,0,0,1-6.43-6.43h0a6.43,6.43,0,0,1,6.43-6.43Z" transform="translate(8.5 8.5)"/><path class="cls-14" d="M2339.25,1153.4a6.43,6.43,0,0,1-6.43,6.43h0a6.43,6.43,0,0,1-6.43-6.43v-59.14a6.43,6.43,0,0,1,6.43-6.43h0a6.43,6.43,0,0,1,6.43,6.43Z" transform="translate(8.5 8.5)"/><path class="cls-14" d="M2362.39,1116.76a6.43,6.43,0,0,1,6.43,6.43h0a6.43,6.43,0,0,1-6.43,6.43h-59.14a6.43,6.43,0,0,1-6.43-6.43h0a6.43,6.43,0,0,1,6.43-6.43Z" transform="translate(8.5 8.5)"/><path class="cls-12" d="M1847.43,628.49a6.43,6.43,0,0,1-6.43,6.43h0a6.43,6.43,0,0,1-6.43-6.43V569.35a6.43,6.43,0,0,1,6.43-6.43h0a6.43,6.43,0,0,1,6.43,6.43Z" transform="translate(8.5 8.5)"/><path class="cls-12" d="M1870.57,591.85a6.42,6.42,0,0,1,6.43,6.42h0a6.43,6.43,0,0,1-6.43,6.43h-59.14a6.43,6.43,0,0,1-6.43-6.43h0a6.42,6.42,0,0,1,6.43-6.42Z" transform="translate(8.5 8.5)"/><path class="cls-12" d="M1148.17,1203.26a6.43,6.43,0,0,1-6.43,6.43h0a6.43,6.43,0,0,1-6.43-6.43v-59.15a6.42,6.42,0,0,1,6.43-6.42h0a6.42,6.42,0,0,1,6.43,6.42Z" transform="translate(8.5 8.5)"/><path class="cls-12" d="M1171.31,1166.61a6.43,6.43,0,0,1,6.43,6.43h0a6.43,6.43,0,0,1-6.43,6.43h-59.14a6.43,6.43,0,0,1-6.43-6.43h0a6.43,6.43,0,0,1,6.43-6.43Z" transform="translate(8.5 8.5)"/><path class="cls-15" d="M405.44,1283.92a6.43,6.43,0,0,1-6.43,6.43h0a6.42,6.42,0,0,1-6.42-6.43v-59.14a6.42,6.42,0,0,1,6.42-6.43h0a6.43,6.43,0,0,1,6.43,6.43Z" transform="translate(8.5 8.5)"/><path class="cls-15" d="M428.59,1247.28a6.42,6.42,0,0,1,6.42,6.43h0a6.41,6.41,0,0,1-6.42,6.42H369.44a6.42,6.42,0,0,1-6.43-6.42h0a6.43,6.43,0,0,1,6.43-6.43Z" transform="translate(8.5 8.5)"/><path class="cls-15" d="M1053.9,1247.93a4.74,4.74,0,0,1-4.74,4.74h0a4.74,4.74,0,0,1-4.73-4.74v-43.58a4.73,4.73,0,0,1,4.73-4.73h0a4.74,4.74,0,0,1,4.74,4.73Z" transform="translate(8.5 8.5)"/><path class="cls-15" d="M1071,1220.93a4.74,4.74,0,0,1,4.74,4.74h0a4.74,4.74,0,0,1-4.74,4.73h-43.58a4.73,4.73,0,0,1-4.73-4.73h0a4.74,4.74,0,0,1,4.73-4.74Z" transform="translate(8.5 8.5)"/><path class="cls-12" d="M440.84,313.22a41.83,41.83,0,1,0,41.83,41.83A41.83,41.83,0,0,0,440.84,313.22Zm0,70.91a27.89,27.89,0,1,1,27.89-27.89A27.89,27.89,0,0,1,440.84,384.13Z" transform="translate(8.5 8.5)"/><path class="cls-16" d="M2591.39,465.11A12.62,12.62,0,1,0,2604,477.72,12.62,12.62,0,0,0,2591.39,465.11Zm0,21.39a8.42,8.42,0,1,1,8.41-8.41A8.42,8.42,0,0,1,2591.39,486.5Z" transform="translate(8.5 8.5)"/><path class="cls-16" d="M899.91,1241.73a12.62,12.62,0,1,0,12.61,12.62A12.62,12.62,0,0,0,899.91,1241.73Zm0,21.39a8.41,8.41,0,1,1,8.41-8.41A8.42,8.42,0,0,1,899.91,1263.12Z" transform="translate(8.5 8.5)"/><path class="cls-16" d="M1937.87,1382.83a12.62,12.62,0,1,0,12.62,12.62A12.62,12.62,0,0,0,1937.87,1382.83Zm0,21.39a8.41,8.41,0,1,1,8.41-8.41A8.41,8.41,0,0,1,1937.87,1404.22Z" transform="translate(8.5 8.5)"/><path class="cls-16" d="M2608.27,1125.07a12.62,12.62,0,1,0,12.62,12.62A12.61,12.61,0,0,0,2608.27,1125.07Zm0,21.39a8.42,8.42,0,1,1,8.42-8.41A8.42,8.42,0,0,1,2608.27,1146.46Z" transform="translate(8.5 8.5)"/><line class="cls-3" x1="1215.69" y1="868.55" x2="1445.32" y2="868.55"/><path class="cls-3" d="M1207.18,860.05" transform="translate(8.5 8.5)"/><path class="cls-3" d="M1165,860.05" transform="translate(8.5 8.5)"/><line class="cls-3" x1="1127.87" y1="868.55" x2="1173.47" y2="868.55"/><path class="cls-3" d="M1119.36,860.05" transform="translate(8.5 8.5)"/><path class="cls-3" d="M1075.45,860.05" transform="translate(8.5 8.5)"/><line class="cls-3" x1="1016.41" y1="868.55" x2="1083.96" y2="868.55"/><path class="cls-3" d="M1007.9,860.05" transform="translate(8.5 8.5)"/><path class="cls-3" d="M969.06,860.05" transform="translate(8.5 8.5)"/><line class="cls-3" x1="484.42" y1="868.55" x2="977.56" y2="868.55"/><path class="cls-3" d="M475.92,860.05" transform="translate(8.5 8.5)"/><path class="cls-3" d="M433.7,860.05" transform="translate(8.5 8.5)"/><line class="cls-3" x1="301.98" y1="868.55" x2="442.2" y2="868.55"/><line class="cls-3" x1="1215.69" y1="1701.56" x2="1445.32" y2="1701.56"/><path class="cls-3" d="M1207.18,1693.05" transform="translate(8.5 8.5)"/><path class="cls-3" d="M1165,1693.05" transform="translate(8.5 8.5)"/><line class="cls-3" x1="1127.87" y1="1701.56" x2="1173.47" y2="1701.56"/><path class="cls-3" d="M1119.36,1693.05" transform="translate(8.5 8.5)"/><path class="cls-3" d="M1075.45,1693.05" transform="translate(8.5 8.5)"/><line class="cls-3" x1="1016.41" y1="1701.56" x2="1083.96" y2="1701.56"/><path class="cls-3" d="M1007.9,1693.05" transform="translate(8.5 8.5)"/><path class="cls-3" d="M969.06,1693.05" transform="translate(8.5 8.5)"/><line class="cls-3" x1="484.42" y1="1701.56" x2="977.56" y2="1701.56"/><path class="cls-3" d="M475.92,1693.05" transform="translate(8.5 8.5)"/><path class="cls-3" d="M433.7,1693.05" transform="translate(8.5 8.5)"/><line class="cls-3" x1="301.98" y1="1701.56" x2="442.2" y2="1701.56"/><line class="cls-3" x1="2599.89" y1="868.55" x2="2829.53" y2="868.55"/><path class="cls-3" d="M2591.39,860.05" transform="translate(8.5 8.5)"/><path class="cls-3" d="M2549.17,860.05" transform="translate(8.5 8.5)"/><line class="cls-3" x1="2512.07" y1="868.55" x2="2557.67" y2="868.55"/><path class="cls-3" d="M2503.57,860.05" transform="translate(8.5 8.5)"/><path class="cls-3" d="M2459.66,860.05" transform="translate(8.5 8.5)"/><line class="cls-3" x1="2400.61" y1="868.55" x2="2468.16" y2="868.55"/><path class="cls-3" d="M2392.11,860.05" transform="translate(8.5 8.5)"/><path class="cls-3" d="M2353.26,860.05" transform="translate(8.5 8.5)"/><line class="cls-3" x1="1868.63" y1="868.55" x2="2361.77" y2="868.55"/><path class="cls-3" d="M1860.12,860.05" transform="translate(8.5 8.5)"/><path class="cls-3" d="M1817.9,860.05" transform="translate(8.5 8.5)"/><line class="cls-3" x1="1686.19" y1="868.55" x2="1826.41" y2="868.55"/><line class="cls-3" x1="2599.89" y1="1701.56" x2="2829.53" y2="1701.56"/><path class="cls-3" d="M2591.39,1693.05" transform="translate(8.5 8.5)"/><path class="cls-3" d="M2549.17,1693.05" transform="translate(8.5 8.5)"/><line class="cls-3" x1="2512.07" y1="1701.56" x2="2557.67" y2="1701.56"/><path class="cls-3" d="M2503.57,1693.05" transform="translate(8.5 8.5)"/><path class="cls-3" d="M2459.66,1693.05" transform="translate(8.5 8.5)"/><line class="cls-3" x1="2400.61" y1="1701.56" x2="2468.16" y2="1701.56"/><path class="cls-3" d="M2392.11,1693.05" transform="translate(8.5 8.5)"/><path class="cls-3" d="M2353.26,1693.05" transform="translate(8.5 8.5)"/><line class="cls-3" x1="1868.63" y1="1701.56" x2="2361.77" y2="1701.56"/><path class="cls-3" d="M1860.12,1693.05" transform="translate(8.5 8.5)"/><path class="cls-3" d="M1817.9,1693.05" transform="translate(8.5 8.5)"/><line class="cls-3" x1="1686.19" y1="1701.56" x2="1826.41" y2="1701.56"/><path class="cls-17" d="M1303.16,659.42a6.43,6.43,0,0,1-9.09,0h0a6.43,6.43,0,0,1,0-9.09l41.82-41.82a6.43,6.43,0,0,1,9.09,0h0a6.43,6.43,0,0,1,0,9.09Z" transform="translate(8.5 8.5)"/><path class="cls-17" d="M1345.43,649.88a6.43,6.43,0,0,1,0,9.09h0a6.43,6.43,0,0,1-9.09,0l-41.82-41.82a6.43,6.43,0,0,1,0-9.09h0a6.43,6.43,0,0,1,9.09,0Z" transform="translate(8.5 8.5)"/><path class="cls-18" d="M482.67,681.72a25.54,25.54,0,1,0,25.55,25.54A25.54,25.54,0,0,0,482.67,681.72Zm0,43.3a17,17,0,1,1,17-17A17,17,0,0,1,482.67,725Z" transform="translate(8.5 8.5)"/><path class="cls-18" d="M433.7,1454a25.54,25.54,0,1,0,25.54,25.54A25.53,25.53,0,0,0,433.7,1454Zm0,43.3a17,17,0,1,1,17-17A17,17,0,0,1,433.7,1497.25Z" transform="translate(8.5 8.5)"/><path class="cls-18" d="M619.16,1148.14a25.55,25.55,0,1,0,25.54,25.55A25.54,25.54,0,0,0,619.16,1148.14Zm0,43.31a17,17,0,1,1,17-17A17,17,0,0,1,619.16,1191.45Z" transform="translate(8.5 8.5)"/><path class="cls-19" d="M1976,482.26a25.55,25.55,0,1,0,25.54,25.54A25.54,25.54,0,0,0,1976,482.26Zm0,43.3a17,17,0,1,1,17-17A17,17,0,0,1,1976,525.56Z" transform="translate(8.5 8.5)"/><path class="cls-20" d="M2633.82,1228.8a25.55,25.55,0,1,0,25.54,25.55A25.55,25.55,0,0,0,2633.82,1228.8Zm0,43.31a17,17,0,1,1,17-17A17,17,0,0,1,2633.82,1272.11Z" transform="translate(8.5 8.5)"/><path class="cls-21" d="M2714.88,1332.61a17,17,0,1,0,17,17A17,17,0,0,0,2714.88,1332.61Zm0,28.84a11.35,11.35,0,1,1,11.34-11.34A11.34,11.34,0,0,1,2714.88,1361.45Z" transform="translate(8.5 8.5)"/><path class="cls-22" d="M2047.73,592.49a12.45,12.45,0,1,0,12.45,12.45A12.44,12.44,0,0,0,2047.73,592.49Zm0,21.11a8.31,8.31,0,1,1,8.3-8.31A8.3,8.3,0,0,1,2047.73,613.6Z" transform="translate(8.5 8.5)"/><path class="cls-22" d="M2060.18,1150.61a12.45,12.45,0,1,0,12.45,12.45A12.44,12.44,0,0,0,2060.18,1150.61Zm0,21.11a8.31,8.31,0,1,1,8.3-8.3A8.3,8.3,0,0,1,2060.18,1171.72Z" transform="translate(8.5 8.5)"/><path class="cls-23" d="M918.3,261a3,3,0,0,1-3,3h0a3,3,0,0,1-3-3V233.17a3,3,0,0,1,3-3h0a3,3,0,0,1,3,3Z" transform="translate(8.5 8.5)"/><path class="cls-23" d="M929.2,243.76a3,3,0,0,1,3,3h0a3,3,0,0,1-3,3H901.35a3,3,0,0,1-3-3h0a3,3,0,0,1,3-3Z" transform="translate(8.5 8.5)"/><path class="cls-24" d="M615.26,290.26a6.21,6.21,0,0,1-6.2,6.21h0a6.21,6.21,0,0,1-6.21-6.21v-9.93a6.21,6.21,0,0,1,6.21-6.21h0a6.21,6.21,0,0,1,6.2,6.21Z" transform="translate(8.5 8.5)"/><path class="cls-24" d="M615.26,346.11a6.21,6.21,0,0,1-6.2,6.21h0a6.21,6.21,0,0,1-6.21-6.21v-9.94a6.21,6.21,0,0,1,6.21-6.2h0a6.21,6.21,0,0,1,6.2,6.2Z" transform="translate(8.5 8.5)"/><path class="cls-24" d="M632.28,319.43a6.21,6.21,0,0,1-6.21-6.21h0a6.21,6.21,0,0,1,6.21-6.21h9.94a6.21,6.21,0,0,1,6.2,6.21h0a6.21,6.21,0,0,1-6.2,6.21Z" transform="translate(8.5 8.5)"/><path class="cls-24" d="M576.43,319.43a6.2,6.2,0,0,1-6.2-6.21h0a6.2,6.2,0,0,1,6.2-6.21h9.94a6.21,6.21,0,0,1,6.21,6.21h0a6.21,6.21,0,0,1-6.21,6.21Z" transform="translate(8.5 8.5)"/><path class="cls-24" d="M597.29,292.78a6.2,6.2,0,0,1,0,8.78h0a6.2,6.2,0,0,1-8.78,0l-7-7a6.2,6.2,0,0,1,0-8.78h0a6.22,6.22,0,0,1,8.78,0Z" transform="translate(8.5 8.5)"/><path class="cls-24" d="M636.78,332.27a6.2,6.2,0,0,1,0,8.78h0a6.2,6.2,0,0,1-8.78,0l-7-7a6.2,6.2,0,0,1,0-8.78h0a6.22,6.22,0,0,1,8.78,0Z" transform="translate(8.5 8.5)"/><path class="cls-24" d="M630,301.37a6.2,6.2,0,0,1-8.78,0h0a6.2,6.2,0,0,1,0-8.78l7-7a6.2,6.2,0,0,1,8.78,0h0a6.2,6.2,0,0,1,0,8.78Z" transform="translate(8.5 8.5)"/><path class="cls-24" d="M590.46,340.86a6.2,6.2,0,0,1-8.78,0h0a6.2,6.2,0,0,1,0-8.78l7-7a6.22,6.22,0,0,1,8.78,0h0a6.2,6.2,0,0,1,0,8.78Z" transform="translate(8.5 8.5)"/><path class="cls-25" d="M2021.07,290.9a6.2,6.2,0,0,1-6.21,6.2h0a6.2,6.2,0,0,1-6.21-6.2V281a6.21,6.21,0,0,1,6.21-6.21h0a6.21,6.21,0,0,1,6.21,6.21Z" transform="translate(8.5 8.5)"/><path class="cls-25" d="M2021.07,346.74a6.21,6.21,0,0,1-6.21,6.21h0a6.21,6.21,0,0,1-6.21-6.21v-9.93a6.21,6.21,0,0,1,6.21-6.21h0a6.21,6.21,0,0,1,6.21,6.21Z" transform="translate(8.5 8.5)"/><path class="cls-25" d="M2038.09,320.06a6.21,6.21,0,0,1-6.21-6.21h0a6.2,6.2,0,0,1,6.21-6.2H2048a6.2,6.2,0,0,1,6.21,6.2h0a6.21,6.21,0,0,1-6.21,6.21Z" transform="translate(8.5 8.5)"/><path class="cls-25" d="M1982.24,320.06a6.21,6.21,0,0,1-6.21-6.21h0a6.2,6.2,0,0,1,6.21-6.2h9.93a6.2,6.2,0,0,1,6.21,6.2h0a6.21,6.21,0,0,1-6.21,6.21Z" transform="translate(8.5 8.5)"/><path class="cls-25" d="M2003.1,293.42a6.22,6.22,0,0,1,0,8.78h0a6.2,6.2,0,0,1-8.78,0l-7-7a6.22,6.22,0,0,1,0-8.78h0a6.2,6.2,0,0,1,8.78,0Z" transform="translate(8.5 8.5)"/><path class="cls-25" d="M2042.59,332.91a6.22,6.22,0,0,1,0,8.78h0a6.2,6.2,0,0,1-8.78,0l-7-7a6.22,6.22,0,0,1,0-8.78h0a6.2,6.2,0,0,1,8.78,0Z" transform="translate(8.5 8.5)"/><path class="cls-25" d="M2035.75,302a6.2,6.2,0,0,1-8.78,0h0a6.22,6.22,0,0,1,0-8.78l7-7a6.2,6.2,0,0,1,8.78,0h0a6.22,6.22,0,0,1,0,8.78Z" transform="translate(8.5 8.5)"/><path class="cls-25" d="M1996.26,341.5a6.2,6.2,0,0,1-8.78,0h0a6.22,6.22,0,0,1,0-8.78l7-7a6.2,6.2,0,0,1,8.78,0h0a6.22,6.22,0,0,1,0,8.78Z" transform="translate(8.5 8.5)"/><path class="cls-26" d="M1956.43,1207.45a6.21,6.21,0,0,1-6.21,6.21h0a6.21,6.21,0,0,1-6.21-6.21v-9.94a6.21,6.21,0,0,1,6.21-6.21h0a6.21,6.21,0,0,1,6.21,6.21Z" transform="translate(8.5 8.5)"/><path class="cls-26" d="M1956.43,1263.29a6.21,6.21,0,0,1-6.21,6.21h0a6.21,6.21,0,0,1-6.21-6.21v-9.93a6.21,6.21,0,0,1,6.21-6.21h0a6.21,6.21,0,0,1,6.21,6.21Z" transform="translate(8.5 8.5)"/><path class="cls-26" d="M1973.44,1236.61a6.21,6.21,0,0,1-6.21-6.21h0a6.21,6.21,0,0,1,6.21-6.2h9.94a6.21,6.21,0,0,1,6.21,6.2h0a6.21,6.21,0,0,1-6.21,6.21Z" transform="translate(8.5 8.5)"/><path class="cls-26" d="M1917.6,1236.61a6.21,6.21,0,0,1-6.21-6.21h0a6.21,6.21,0,0,1,6.21-6.2h9.93a6.21,6.21,0,0,1,6.21,6.2h0a6.21,6.21,0,0,1-6.21,6.21Z" transform="translate(8.5 8.5)"/><path class="cls-26" d="M1938.45,1210a6.2,6.2,0,0,1,0,8.78h0a6.2,6.2,0,0,1-8.78,0l-7-7a6.2,6.2,0,0,1,0-8.78h0a6.2,6.2,0,0,1,8.78,0Z" transform="translate(8.5 8.5)"/><path class="cls-26" d="M1977.94,1249.46a6.2,6.2,0,0,1,0,8.78h0a6.2,6.2,0,0,1-8.78,0l-7-7a6.2,6.2,0,0,1,0-8.78h0a6.2,6.2,0,0,1,8.78,0Z" transform="translate(8.5 8.5)"/><path class="cls-26" d="M1971.11,1218.56a6.2,6.2,0,0,1-8.78,0h0a6.2,6.2,0,0,1,0-8.78l7-7a6.2,6.2,0,0,1,8.78,0h0a6.2,6.2,0,0,1,0,8.78Z" transform="translate(8.5 8.5)"/><path class="cls-26" d="M1931.62,1258.05a6.2,6.2,0,0,1-8.78,0h0a6.2,6.2,0,0,1,0-8.78l7-7a6.2,6.2,0,0,1,8.78,0h0a6.2,6.2,0,0,1,0,8.78Z" transform="translate(8.5 8.5)"/><path class="cls-27" d="M1038.83,488.93a3,3,0,0,1-3,3h0a3,3,0,0,1-3-3V461.07a3,3,0,0,1,3-3h0a3,3,0,0,1,3,3Z" transform="translate(8.5 8.5)"/><path class="cls-27" d="M1049.72,471.67a3,3,0,0,1,3,3h0a3,3,0,0,1-3,3h-27.85a3,3,0,0,1-3-3h0a3,3,0,0,1,3-3Z" transform="translate(8.5 8.5)"/><path class="cls-27" d="M2011.68,1355.23a3,3,0,0,1-3,3h0a3,3,0,0,1-3-3v-27.85a3,3,0,0,1,3-3h0a3,3,0,0,1,3,3Z" transform="translate(8.5 8.5)"/><path class="cls-27" d="M2022.58,1338a3,3,0,0,1,3,3h0a3,3,0,0,1-3,3h-27.85a3,3,0,0,1-3-3h0a3,3,0,0,1,3-3Z" transform="translate(8.5 8.5)"/><path class="cls-28" d="M942.1,406.34a5.06,5.06,0,0,1-7.18,0h0a5.06,5.06,0,0,1,0-7.18L968,366.11a5.08,5.08,0,0,1,7.18,0h0a5.09,5.09,0,0,1,0,7.19Z" transform="translate(8.5 8.5)"/><path class="cls-28" d="M975.51,398.8a5.08,5.08,0,0,1,0,7.18h0a5.06,5.06,0,0,1-7.18,0l-33.05-33a5.08,5.08,0,0,1,0-7.19h0a5.08,5.08,0,0,1,7.18,0Z" transform="translate(8.5 8.5)"/><path class="cls-29" d="M2566.89,312.37a5.08,5.08,0,0,1-7.18,0h0a5.08,5.08,0,0,1,0-7.19l33.05-33.05a5.08,5.08,0,0,1,7.18,0h0a5.08,5.08,0,0,1,0,7.19Z" transform="translate(8.5 8.5)"/><path class="cls-29" d="M2600.3,304.82a5.09,5.09,0,0,1,0,7.19h0a5.08,5.08,0,0,1-7.18,0l-33-33.05a5.08,5.08,0,0,1,0-7.19h0a5.08,5.08,0,0,1,7.18,0Z" transform="translate(8.5 8.5)"/><path class="cls-30" d="M2304,242.52a4.24,4.24,0,0,1-6,0h0a4.24,4.24,0,0,1,0-6l27.6-27.6a4.26,4.26,0,0,1,6,0h0a4.24,4.24,0,0,1,0,6Z" transform="translate(8.5 8.5)"/><path class="cls-30" d="M2331.88,236.22a4.26,4.26,0,0,1,0,6h0a4.24,4.24,0,0,1-6,0l-27.6-27.6a4.24,4.24,0,0,1,0-6h0a4.25,4.25,0,0,1,6,0Z" transform="translate(8.5 8.5)"/><path class="cls-31" d="M1980.75,1140.63a4.24,4.24,0,0,1-6,0h0a4.24,4.24,0,0,1,0-6l27.6-27.59a4.24,4.24,0,0,1,6,0h0a4.24,4.24,0,0,1,0,6Z" transform="translate(8.5 8.5)"/><path class="cls-31" d="M2008.65,1134.33a4.26,4.26,0,0,1,0,6h0a4.24,4.24,0,0,1-6,0l-27.6-27.6a4.24,4.24,0,0,1,0-6h0a4.25,4.25,0,0,1,6,0Z" transform="translate(8.5 8.5)"/><path class="cls-30" d="M528.92,1529.63a4.24,4.24,0,0,1-6,0h0a4.24,4.24,0,0,1,0-6l27.59-27.6a4.26,4.26,0,0,1,6,0h0a4.24,4.24,0,0,1,0,6Z" transform="translate(8.5 8.5)"/><path class="cls-30" d="M556.81,1523.33a4.24,4.24,0,0,1,0,6h0a4.22,4.22,0,0,1-6,0l-27.6-27.6a4.24,4.24,0,0,1,0-6h0a4.26,4.26,0,0,1,6,0Z" transform="translate(8.5 8.5)"/><path class="cls-32" d="M631.41,1372.53a22.92,22.92,0,1,1-22.91-22.91A22.92,22.92,0,0,1,631.41,1372.53Z" transform="translate(8.5 8.5)"/><path class="cls-32" d="M2146.27,1460.45a17.92,17.92,0,1,1-17.91-17.92A17.91,17.91,0,0,1,2146.27,1460.45Z" transform="translate(8.5 8.5)"/><path class="cls-33" d="M2485.25,699.48c-16.57-40.26,3.55-282.15-52.1-338.18,0,0-34-51.48-118.41-63.39-101-12-151.15,53.57-158.85,96.58l-40.66,25.64,45.09,12.54c46.67,18.15,81,48.93,61.16,82.73-18.1,22.19-81.48,111-23.71,206.14s151.87,77.8,198.36,75.23c0,0,72.54-7.3,110.44-31S2501.83,739.74,2485.25,699.48Z" transform="translate(8.5 8.5)"/><path class="cls-34" d="M2457.57,699.48c-16.58-40.26-3.55-256-37.89-310.55,0,0-24.51-79.11-108.94-91-57.2-6.8-98.09,11.29-124.19,36.07,23.65-11.28,53.59-17.13,90.21-12.77,84.43,11.9,102.62,63.38,102.62,63.38,41.48,72,33.95,297.92,50.52,338.18,12.8,31.08,35.59,39.58,30.41,52.73a130,130,0,0,0,19.36-9.71C2517.56,742.1,2474.15,739.74,2457.57,699.48Z" transform="translate(8.5 8.5)"/><path class="cls-3" d="M2178.84,320.25a129.36,129.36,0,0,0-13.55,10.42" transform="translate(8.5 8.5)"/><path class="cls-3" d="M2193.78,311.59" transform="translate(8.5 8.5)"/><path class="cls-3" d="M2216.56,302.72c-10,2.56-14.43,4.73-14.43,4.73" transform="translate(8.5 8.5)"/><path class="cls-3" d="M2180.41,738.45c58.1,76.09,143.34,60.72,186.86,58.32,0,0,72.54-7.3,110.43-31s-4.74-26-21.31-66.31,3.55-282.15-52.1-338.18c0,0-34-51.48-118.41-63.39a194,194,0,0,0-34.17-1.14" transform="translate(8.5 8.5)"/><path class="cls-3" d="M2147.59,666.51c2.59,14.17,2.41,16.41,7.47,32.82" transform="translate(8.5 8.5)"/><path class="cls-3" d="M2147,615.13a161.82,161.82,0,0,0-1.81,22" transform="translate(8.5 8.5)"/><path class="cls-3" d="M2165.29,330.67c-22.24,19.57-34.73,44.08-38.26,63.82l-40.67,25.64,45.1,12.54c46.66,18.15,81,48.93,61.15,82.73-10.92,13.39-38.34,51.05-45.66,99.73" transform="translate(8.5 8.5)"/><path class="cls-32" d="M2269.3,396.36a24.87,24.87,0,1,1-24.87-24.86A24.86,24.86,0,0,1,2269.3,396.36Z" transform="translate(8.5 8.5)"/><path class="cls-35" d="M2284.17,606.63a105,105,0,0,0,105,105v-210A105,105,0,0,0,2284.17,606.63Z" transform="translate(8.5 8.5)"/><path class="cls-36" d="M2297.39,632.47a105,105,0,0,1,91.79-104.19V503.43a105,105,0,0,0-84.67,167.12A104.89,104.89,0,0,1,2297.39,632.47Z" transform="translate(8.5 8.5)"/><path class="cls-3" d="M2284.17,606.63a105,105,0,0,0,105,105v-210A105,105,0,0,0,2284.17,606.63Z" transform="translate(8.5 8.5)"/><path class="cls-9" d="M2242.08,326.75c6.3-2.8,7.64-3,14.55-5.05" transform="translate(8.5 8.5)"/><path class="cls-9" d="M2188.56,362.9A128.56,128.56,0,0,1,2219.05,339" transform="translate(8.5 8.5)"/><path class="cls-37" d="M2714.88,394.31a9.07,9.07,0,0,1-9.07,9.06h0a9.06,9.06,0,0,1-9.06-9.06V379.8a9.06,9.06,0,0,1,9.06-9.07h0a9.07,9.07,0,0,1,9.07,9.07Z" transform="translate(8.5 8.5)"/><path class="cls-37" d="M2714.88,475.86a9.07,9.07,0,0,1-9.07,9.07h0a9.06,9.06,0,0,1-9.06-9.07v-14.5a9.06,9.06,0,0,1,9.06-9.07h0a9.07,9.07,0,0,1,9.07,9.07Z" transform="translate(8.5 8.5)"/><path class="cls-37" d="M2739.73,436.9a9.07,9.07,0,0,1-9.07-9.07h0a9.07,9.07,0,0,1,9.07-9.06h14.51a9.06,9.06,0,0,1,9.06,9.06h0a9.06,9.06,0,0,1-9.06,9.07Z" transform="translate(8.5 8.5)"/><path class="cls-37" d="M2658.17,436.9a9.07,9.07,0,0,1-9.07-9.07h0a9.07,9.07,0,0,1,9.07-9.06h14.51a9.07,9.07,0,0,1,9.07,9.06h0a9.07,9.07,0,0,1-9.07,9.07Z" transform="translate(8.5 8.5)"/><path class="cls-37" d="M2688.63,398a9.07,9.07,0,0,1,0,12.82h0a9,9,0,0,1-12.82,0l-10.26-10.25a9.08,9.08,0,0,1,0-12.83h0a9.07,9.07,0,0,1,12.82,0Z" transform="translate(8.5 8.5)"/><path class="cls-37" d="M2746.3,455.66a9.08,9.08,0,0,1,0,12.83h0a9.07,9.07,0,0,1-12.82,0l-10.26-10.26a9.07,9.07,0,0,1,0-12.82h0a9,9,0,0,1,12.82,0Z" transform="translate(8.5 8.5)"/><path class="cls-37" d="M2736.32,410.54a9.07,9.07,0,0,1-12.82,0h0a9.07,9.07,0,0,1,0-12.82l10.26-10.26a9.07,9.07,0,0,1,12.82,0h0a9.07,9.07,0,0,1,0,12.82Z" transform="translate(8.5 8.5)"/><path class="cls-37" d="M2678.65,468.21a9.07,9.07,0,0,1-12.82,0h0a9.07,9.07,0,0,1,0-12.82l10.26-10.26a9.07,9.07,0,0,1,12.82,0h0a9.07,9.07,0,0,1,0,12.82Z" transform="translate(8.5 8.5)"/><path class="cls-38" d="M2474.78,1024.3a9.07,9.07,0,0,1-9.07,9.07h0a9.07,9.07,0,0,1-9.06-9.07v-14.5a9.07,9.07,0,0,1,9.06-9.07h0a9.07,9.07,0,0,1,9.07,9.07Z" transform="translate(8.5 8.5)"/><path class="cls-38" d="M2474.78,1105.86a9.07,9.07,0,0,1-9.07,9.07h0a9.07,9.07,0,0,1-9.06-9.07v-14.51a9.06,9.06,0,0,1,9.06-9.06h0a9.07,9.07,0,0,1,9.07,9.06Z" transform="translate(8.5 8.5)"/><path class="cls-38" d="M2499.63,1066.89a9.07,9.07,0,0,1-9.07-9.06h0a9.07,9.07,0,0,1,9.07-9.07h14.51a9.07,9.07,0,0,1,9.07,9.07h0a9.07,9.07,0,0,1-9.07,9.06Z" transform="translate(8.5 8.5)"/><path class="cls-38" d="M2418.07,1066.89a9.06,9.06,0,0,1-9.06-9.06h0a9.06,9.06,0,0,1,9.06-9.07h14.51a9.07,9.07,0,0,1,9.07,9.07h0a9.07,9.07,0,0,1-9.07,9.06Z" transform="translate(8.5 8.5)"/><path class="cls-38" d="M2448.53,1028a9.07,9.07,0,0,1,0,12.82h0a9.07,9.07,0,0,1-12.82,0l-10.26-10.26a9.07,9.07,0,0,1,0-12.82h0a9.08,9.08,0,0,1,12.83,0Z" transform="translate(8.5 8.5)"/><path class="cls-38" d="M2506.2,1085.66a9.07,9.07,0,0,1,0,12.82h0a9.07,9.07,0,0,1-12.82,0l-10.26-10.26a9.07,9.07,0,0,1,0-12.82h0a9.08,9.08,0,0,1,12.83,0Z" transform="translate(8.5 8.5)"/><path class="cls-38" d="M2496.22,1040.53a9.07,9.07,0,0,1-12.82,0h0a9.07,9.07,0,0,1,0-12.82l10.26-10.26a9.07,9.07,0,0,1,12.82,0h0a9.08,9.08,0,0,1,0,12.83Z" transform="translate(8.5 8.5)"/><path class="cls-38" d="M2438.55,1098.2a9.07,9.07,0,0,1-12.82,0h0a9.07,9.07,0,0,1,0-12.82l10.26-10.26a9.07,9.07,0,0,1,12.82,0h0a9.08,9.08,0,0,1,0,12.83Z" transform="translate(8.5 8.5)"/><path class="cls-37" d="M883.72,1114.62a9.07,9.07,0,0,1-9.07,9.06h0a9.06,9.06,0,0,1-9.06-9.06v-14.51a9.07,9.07,0,0,1,9.06-9.07h0a9.07,9.07,0,0,1,9.07,9.07Z" transform="translate(8.5 8.5)"/><path class="cls-37" d="M883.72,1196.17a9.07,9.07,0,0,1-9.07,9.07h0a9.07,9.07,0,0,1-9.06-9.07v-14.5a9.07,9.07,0,0,1,9.06-9.07h0a9.07,9.07,0,0,1,9.07,9.07Z" transform="translate(8.5 8.5)"/><path class="cls-37" d="M908.57,1157.21a9.07,9.07,0,0,1-9.07-9.07h0a9.06,9.06,0,0,1,9.07-9.06h14.51a9.06,9.06,0,0,1,9.07,9.06h0a9.07,9.07,0,0,1-9.07,9.07Z" transform="translate(8.5 8.5)"/><path class="cls-37" d="M827,1157.21a9.06,9.06,0,0,1-9.06-9.07h0a9.05,9.05,0,0,1,9.06-9.06h14.51a9.06,9.06,0,0,1,9.07,9.06h0a9.07,9.07,0,0,1-9.07,9.07Z" transform="translate(8.5 8.5)"/><path class="cls-37" d="M857.47,1118.3a9.08,9.08,0,0,1,0,12.83h0a9.07,9.07,0,0,1-12.82,0l-10.26-10.26a9.08,9.08,0,0,1,0-12.83h0a9.08,9.08,0,0,1,12.83,0Z" transform="translate(8.5 8.5)"/><path class="cls-37" d="M915.14,1176a9.07,9.07,0,0,1,0,12.82h0a9,9,0,0,1-12.82,0l-10.26-10.25a9.08,9.08,0,0,1,0-12.83h0a9.08,9.08,0,0,1,12.83,0Z" transform="translate(8.5 8.5)"/><path class="cls-37" d="M905.16,1130.85a9.07,9.07,0,0,1-12.82,0h0a9.07,9.07,0,0,1,0-12.82l10.26-10.26a9.07,9.07,0,0,1,12.82,0h0a9.07,9.07,0,0,1,0,12.82Z" transform="translate(8.5 8.5)"/><path class="cls-37" d="M847.49,1188.52a9.07,9.07,0,0,1-12.82,0h0a9.07,9.07,0,0,1,0-12.82l10.26-10.26a9.07,9.07,0,0,1,12.82,0h0a9.07,9.07,0,0,1,0,12.82Z" transform="translate(8.5 8.5)"/><path class="cls-29" d="M1966.68,669.06a5.09,5.09,0,0,1-7.19,0h0a5.09,5.09,0,0,1,0-7.19l33-33a5.08,5.08,0,0,1,7.19,0h0a5.08,5.08,0,0,1,0,7.18Z" transform="translate(8.5 8.5)"/><path class="cls-29" d="M2000.08,661.51a5.08,5.08,0,0,1,0,7.19h0a5.08,5.08,0,0,1-7.18,0l-33.05-33.05a5.08,5.08,0,0,1,0-7.18h0a5.08,5.08,0,0,1,7.19,0Z" transform="translate(8.5 8.5)"/><path class="cls-29" d="M2556.85,1228.72a5.06,5.06,0,0,1-7.18,0h0a5.06,5.06,0,0,1,0-7.18l33-33a5.09,5.09,0,0,1,7.19,0h0a5.09,5.09,0,0,1,0,7.19Z" transform="translate(8.5 8.5)"/><path class="cls-29" d="M2590.26,1221.18a5.08,5.08,0,0,1,0,7.18h0a5.08,5.08,0,0,1-7.19,0l-33-33a5.08,5.08,0,0,1,0-7.19h0a5.08,5.08,0,0,1,7.18,0Z" transform="translate(8.5 8.5)"/><path class="cls-39" d="M2142,1135.4a5.08,5.08,0,0,1-7.19,0h0a5.08,5.08,0,0,1,0-7.18l33-33a5.08,5.08,0,0,1,7.18,0h0a5.06,5.06,0,0,1,0,7.18Z" transform="translate(8.5 8.5)"/><path class="cls-39" d="M2175.35,1127.86a5.06,5.06,0,0,1,0,7.18h0a5.06,5.06,0,0,1-7.18,0l-33.05-33a5.09,5.09,0,0,1,0-7.19h0a5.08,5.08,0,0,1,7.18,0Z" transform="translate(8.5 8.5)"/><path class="cls-29" d="M1279.07,1525.33a5.08,5.08,0,0,1-7.18,0h0a5.08,5.08,0,0,1,0-7.19l33-33a5.08,5.08,0,0,1,7.19,0h0a5.08,5.08,0,0,1,0,7.18Z" transform="translate(8.5 8.5)"/><path class="cls-29" d="M1312.48,1517.79a5.08,5.08,0,0,1,0,7.18h0a5.09,5.09,0,0,1-7.19,0l-33-33a5.06,5.06,0,0,1,0-7.18h0a5.06,5.06,0,0,1,7.18,0Z" transform="translate(8.5 8.5)"/><polygon class="cls-40" points="1302.56 1308.77 1338.19 1308.77 1335.7 1216.93 1302.56 1267.11 1302.56 1308.77"/><path class="cls-40" d="M1331.11,1328.32l-.13-16-93.65,56.78c-69.18,72.45-167.43,115-340.32,115-168.58,0-313.25-45-375.34-121.08,35.06,98.78,178.18,150.56,377.87,150.56,172.89,0,310.5-55.15,369.8-134.31l79.44-49.09Z" transform="translate(8.5 8.5)"/><line class="cls-3" x1="677.2" y1="1311.84" x2="627.44" y2="1311.84"/><line class="cls-3" x1="726.96" y1="1311.84" x2="714.98" y2="1311.84"/><path class="cls-3" d="M588.53,1303.34H474c3.22,115.9,184.51,209.34,407.67,209.34,172.89,0,320.64-56.08,379.94-135.24l117.22-71.2-88.62-1.87-3.91-119.9-78.53,118.87H742.42" transform="translate(8.5 8.5)"/><path class="cls-40" d="M688,1337a57.88,57.88,0,0,0-7,.42,58.5,58.5,0,0,1,0,116.16,60,60,0,0,0,7,.42,58.5,58.5,0,0,0,0-117Z" transform="translate(8.5 8.5)"/><line class="cls-9" x1="826.45" y1="1349.81" x2="908.41" y2="1349.81"/><line class="cls-9" x1="780.19" y1="1349.81" x2="801.26" y2="1349.81"/><path class="cls-41" d="M2422.92,1233.17c-51.84,0-128.34,14.32-169.76,39.21,6.16-33.74,9.77-55.06-2-86.31,0,0-11.87-.71-26.71,8.76a188,188,0,0,0-19.11-37.48,186.51,186.51,0,0,0-84.17,99.21c16.55-25.07,17.79-31.51,43.46-45.94,7.74,11.72,9.16,9.29,14.11,22.48,8.23-13.77,44.71-19.77,44.71-19.77,11.74,31.26,6.13,62.58,0,96.32,41.42-24.89,127.92-37.22,179.76-37.22,140,0,216.59,104.36,234.28,239.52h24c0-1,0-2.09,0-3.14C2661.55,1356.58,2565.67,1255.67,2422.92,1233.17Z" transform="translate(8.5 8.5)"/><path class="cls-3" d="M2081.1,1293.47m3.33-17.15,3.72-13.68c1.85-8.29,0,0-3.72,13.68m29.92-65.25a186.74,186.74,0,0,0-17,28.67M2080,1303.09c-6.45,44.12,4.41,77.88,26.21,114,0,0-75.43,40.5-77.33,94.93h154a.43.43,0,0,1,0,0H2667.7c0-1,0-2.09,0-3.14,0-152.23-123.4-275.64-275.63-275.64a274.41,274.41,0,0,0-141.76,39.21,187,187,0,0,0-9-99.31,187.87,187.87,0,0,0-47.71,21.77,188.22,188.22,0,0,0-19.11-37.48,187.37,187.37,0,0,0-60.21,53.74" transform="translate(8.5 8.5)"/><path class="cls-9" d="M2348.29,1283.74c10.21-2.58,15.32-4.44,26-5.53" transform="translate(8.5 8.5)"/><path class="cls-9" d="M2402.12,1277.08a219.05,219.05,0,0,1,64.38,9.61" transform="translate(8.5 8.5)"/><rect class="cls-42" width="3017.01" height="2017.01"/></svg>