<?xml version="1.0" standalone="no"?><!DOCTYPE svg PUBLIC "-//W3C//DTD SVG 1.1//EN" "http://www.w3.org/Graphics/SVG/1.1/DTD/svg11.dtd"><svg t="1544730841318" class="icon" style="" viewBox="0 0 1024 1024" version="1.1" xmlns="http://www.w3.org/2000/svg" p-id="3487" xmlns:xlink="http://www.w3.org/1999/xlink" width="200" height="200"><defs><style type="text/css"></style></defs><path d="M890.88 209.92c-40.96-40.96-107.52-40.96-148.48 0L373.76 586.24 281.6 491.52c-40.96-40.96-107.52-40.96-148.48 0-40.96 40.96-40.96 110.08 0 151.04l166.4 168.96c40.96 40.96 107.52 40.96 148.48 0L890.88 358.4c40.96-38.4 40.96-107.52 0-148.48z m-38.4 112.64S414.72 768 409.6 775.68c-20.48 20.48-53.76 20.48-74.24 0 0 0-166.4-171.52-168.96-171.52-17.92-20.48-17.92-53.76 2.56-74.24 20.48-20.48 53.76-20.48 74.24 0l130.56 133.12L780.8 248.32c20.48-20.48 53.76-20.48 74.24 0 17.92 20.48 17.92 53.76-2.56 74.24z" p-id="3488"></path></svg>