<?xml version="1.0" standalone="no"?><!DOCTYPE svg PUBLIC "-//W3C//DTD SVG 1.1//EN" "http://www.w3.org/Graphics/SVG/1.1/DTD/svg11.dtd"><svg t="1544720063865" class="icon" style="" viewBox="0 0 1024 1024" version="1.1" xmlns="http://www.w3.org/2000/svg" p-id="1999" xmlns:xlink="http://www.w3.org/1999/xlink" width="200" height="200"><defs><style type="text/css"></style></defs><path d="M790.4 896l-76.16 0c248.96-286.08 263.04-468.48 190.08-555.52-75.52-89.6-216.96-87.04-331.52-21.76L431.36 318.72c-114.56-64.64-262.4-72.32-331.52 21.76C32.64 431.36 40.96 609.92 290.56 896L214.4 896c-17.92 0-32 14.08-32 32 0 17.92 14.08 32 32 32l576 0c17.92 0 32-14.08 32-32C822.4 910.08 808.32 896 790.4 896zM377.6 896c-179.2-189.44-302.72-420.48-227.2-515.2 51.2-64.64 157.44-56.32 243.2-8.96C356.48 527.36 378.24 753.92 426.24 896L377.6 896zM511.36 896 493.44 896c-50.56-126.72-75.52-362.88-38.4-512.64l94.72 0C586.88 532.48 561.92 768.64 511.36 896zM578.56 896c48.64-142.08 69.76-369.28 32.64-524.16 85.76-47.36 192-55.68 243.2 8.96C929.92 476.16 806.4 706.56 627.2 896L578.56 896zM502.4 256c35.2 0 64-28.8 64-64 0-35.2-28.8-64-64-64-35.2 0-64 28.8-64 64C438.4 227.2 467.2 256 502.4 256z" p-id="2000"></path></svg>