<?xml version="1.0" standalone="no"?><!DOCTYPE svg PUBLIC "-//W3C//DTD SVG 1.1//EN" "http://www.w3.org/Graphics/SVG/1.1/DTD/svg11.dtd"><svg t="1544652173497" class="icon" style="" viewBox="0 0 1024 1024" version="1.1" xmlns="http://www.w3.org/2000/svg" p-id="1086" xmlns:xlink="http://www.w3.org/1999/xlink" width="256" height="256"><defs><style type="text/css"></style></defs><path d="M732.16 112.64v138.24C732.16 372.736 633.856 471.04 512 471.04s-220.16-98.304-220.16-220.16V112.64h440.32m43.008-81.92H249.856c-21.504 0-38.912 17.408-38.912 38.912v181.248C210.944 416.768 346.112 552.96 512 552.96s302.08-136.192 302.08-302.08V69.632c0-21.504-17.408-38.912-38.912-38.912z" fill="#ffffff" p-id="1087"></path><path d="M512 552.96c121.856 0 220.16 98.304 220.16 220.16V911.36h-440.32V773.12C291.84 651.264 391.168 552.96 512 552.96m0-81.92c-165.888 0-302.08 136.192-302.08 302.08v181.248c0 21.504 17.408 38.912 38.912 38.912h525.312c21.504 0 38.912-17.408 38.912-38.912V773.12C814.08 607.232 677.888 471.04 512 471.04z" fill="#ffffff" p-id="1088"></path><path d="M825.344 916.48H197.632c-20.48 0-37.888 17.408-37.888 37.888s17.408 37.888 37.888 37.888h627.712c20.48 0 37.888-17.408 37.888-37.888s-16.384-37.888-37.888-37.888zM826.368 30.72H198.656c-20.48 0-37.888 17.408-37.888 37.888s17.408 37.888 37.888 37.888h627.712c20.48 0 37.888-17.408 37.888-37.888S846.848 30.72 826.368 30.72zM512 433.152c-121.856 0-171.008-106.496-179.2-162.816-3.072-22.528 11.264-43.008 33.792-47.104 22.528-3.072 43.008 11.264 47.104 33.792 2.048 9.216 18.432 93.184 98.304 93.184 83.968 0 99.328-90.112 100.352-94.208 4.096-22.528 24.576-36.864 47.104-33.792 22.528 4.096 36.864 24.576 33.792 47.104-9.216 57.344-59.392 163.84-181.248 163.84z" fill="#ffffff" p-id="1089"></path></svg>